<svg width="32" height="32" viewBox="0 0 32 32" fill="none" xmlns="http://www.w3.org/2000/svg">
  <rect width="32" height="32" rx="8" fill="#4F46E5"/>
  <path d="M16 8C11.5817 8 8 11.5817 8 16C8 20.4183 11.5817 24 16 24C20.4183 24 24 20.4183 24 16C24 11.5817 20.4183 8 16 8ZM13 18.5C12.1716 18.5 11.5 17.8284 11.5 17C11.5 16.1716 12.1716 15.5 13 15.5C13.8284 15.5 14.5 16.1716 14.5 17C14.5 17.8284 13.8284 18.5 13 18.5ZM19 18.5C18.1716 18.5 17.5 17.8284 17.5 17C17.5 16.1716 18.1716 15.5 19 15.5C19.8284 15.5 20.5 16.1716 20.5 17C20.5 17.8284 19.8284 18.5 19 18.5Z" fill="white"/>
  <path d="M16 22C18.7614 22 21 19.7614 21 17H11C11 19.7614 13.2386 22 16 22Z" fill="white"/>
</svg>
